<?xml version="1.0" encoding="iso-8859-1"?>
<!-- Uploaded to: SVG Repo, www.svgrepo.com, Generator: SVG Repo Mixer Tools -->
<svg version="1.1" id="Layer_1" xmlns="http://www.w3.org/2000/svg" xmlns:xlink="http://www.w3.org/1999/xlink" 
	 viewBox="0 0 512 512" xml:space="preserve">
<g>
	<path style="fill:#507C5C;" d="M280.915,512H108.461c-7.804,0-14.129-6.326-14.129-14.129V112.049
		c0-7.804,6.326-14.129,14.129-14.129s14.129,6.326,14.129,14.129v371.693h158.324c7.804,0,14.129,6.326,14.129,14.129
		S288.718,512,280.915,512z"/>
	<path style="fill:#507C5C;" d="M403.539,512h-49.853c-7.804,0-14.129-6.326-14.129-14.129s6.326-14.129,14.129-14.129h35.724
		V265.898c0-7.804,6.326-14.129,14.129-14.129s14.129,6.326,14.129,14.129v231.973C417.668,505.674,411.342,512,403.539,512z"/>
</g>
<path style="fill:#CFF09E;" d="M158.302,496.41h-49.829V252.868c0-13.76,11.155-24.914,24.914-24.914l0,0
	c13.76,0,24.914,11.155,24.914,24.914V496.41H158.302z"/>
<path style="fill:#507C5C;" d="M158.302,510.539h-49.829c-7.804,0-14.129-6.326-14.129-14.129V252.868
	c0-21.529,17.515-39.043,39.043-39.043s39.043,17.515,39.043,39.043V496.41C172.431,504.213,166.105,510.539,158.302,510.539z
	 M122.602,482.281h21.57V252.868c0-5.947-4.838-10.785-10.785-10.785c-5.947,0-10.785,4.838-10.785,10.785L122.602,482.281
	L122.602,482.281z"/>
<path style="fill:#CFF09E;" d="M280.927,496.41h-49.828V252.868c0-13.76,11.155-24.914,24.914-24.914l0,0
	c13.76,0,24.914,11.155,24.914,24.914V496.41z"/>
<path style="fill:#507C5C;" d="M280.927,510.539h-49.829c-7.804,0-14.129-6.326-14.129-14.129V252.868
	c0-21.529,17.514-39.043,39.043-39.043s39.043,17.515,39.043,39.043V496.41C295.057,504.213,288.731,510.539,280.927,510.539z
	 M245.227,482.281h21.571V252.868c0-5.947-4.838-10.785-10.785-10.785c-5.947,0-10.785,4.838-10.785,10.785v229.412H245.227z"/>
<path style="fill:#CFF09E;" d="M403.528,496.41H353.7V252.868c0-13.76,11.155-24.914,24.914-24.914l0,0
	c13.76,0,24.914,11.155,24.914,24.914V496.41z"/>
<path style="fill:#507C5C;" d="M403.528,510.539H353.7c-7.804,0-14.129-6.326-14.129-14.129V252.868
	c0-21.529,17.515-39.043,39.043-39.043c21.529,0,39.043,17.515,39.043,39.043V496.41
	C417.657,504.213,411.331,510.539,403.528,510.539z M367.829,482.281h21.57V252.868c0-5.947-4.838-10.785-10.785-10.785
	c-5.947,0-10.785,4.838-10.785,10.785V482.281z"/>
<rect x="74.677" y="70.646" style="fill:#CFF09E;" width="362.653" height="73.472"/>
<g>
	<path style="fill:#507C5C;" d="M437.323,158.247H74.677c-7.804,0-14.129-6.326-14.129-14.129V70.646
		c0-7.804,6.326-14.129,14.129-14.129h362.646c7.804,0,14.129,6.326,14.129,14.129v73.472
		C451.452,151.921,445.127,158.247,437.323,158.247z M88.806,129.988h334.388V84.775H88.806V129.988z"/>
	<path style="fill:#507C5C;" d="M315.107,84.775c-7.804,0-14.129-6.326-14.129-14.129V28.258h-89.956v42.387
		c0,7.804-6.326,14.129-14.129,14.129s-14.129-6.326-14.129-14.129V14.129C182.764,6.326,189.089,0,196.893,0h118.214
		c7.804,0,14.129,6.326,14.129,14.129v56.517C329.236,78.449,322.911,84.775,315.107,84.775z"/>
</g>
</svg>