<?xml version="1.0" encoding="iso-8859-1"?>
<!-- Uploaded to: SVG Repo, www.svgrepo.com, Generator: SVG Repo Mixer Tools -->
<svg version="1.1" id="Layer_1" xmlns="http://www.w3.org/2000/svg" xmlns:xlink="http://www.w3.org/1999/xlink" 
	 viewBox="0 0 512 512" xml:space="preserve">
<path style="fill:#507C5C;" d="M342.12,495.498H44.573C19.996,495.498,0,475.504,0,450.927V61.072
	c0-24.577,19.996-44.571,44.573-44.571H342.12c24.577,0,44.571,19.995,44.571,44.571V189.68c0,8.388-6.8,15.188-15.188,15.188
	s-15.188-6.8-15.188-15.188V61.072c0-7.828-6.368-14.196-14.196-14.196H44.573c-7.828,0-14.197,6.368-14.197,14.196v389.853
	c0,7.828,6.368,14.196,14.197,14.196H342.12c7.828,0,14.196-6.368,14.196-14.196v-50.639c0-8.388,6.8-15.188,15.188-15.188
	s15.188,6.799,15.188,15.188v50.639C386.691,475.504,366.697,495.498,342.12,495.498z"/>
<rect x="107.536" y="98.554" style="fill:#CFF09E;" width="171.62" height="61.764"/>
<g>
	<path style="fill:#507C5C;" d="M279.155,175.505H107.536c-8.388,0-15.188-6.799-15.188-15.188V98.556
		c0-8.388,6.8-15.188,15.188-15.188h171.619c8.388,0,15.188,6.8,15.188,15.188v61.764
		C294.343,168.706,287.543,175.505,279.155,175.505z M122.724,145.13h141.244v-31.387H122.724V145.13z"/>
	<path style="fill:#507C5C;" d="M496.812,175.704c-3.887,0-7.775-1.482-10.739-4.448l-39.295-39.295l-30.826,30.826
		c-5.929,5.931-15.546,5.932-21.478,0c-5.931-5.931-5.931-15.548,0-21.478l41.566-41.566c5.931-5.929,15.546-5.931,21.478,0
		l50.034,50.034c5.931,5.931,5.931,15.548,0,21.48C504.587,174.222,500.699,175.704,496.812,175.704z"/>
</g>
<polygon style="fill:#CFF09E;" points="405.213,152.048 213.763,343.497 205.777,401.517 263.797,393.532 455.247,202.082 "/>
<g>
	<path style="fill:#507C5C;" d="M205.777,416.705c-3.999,0-7.872-1.581-10.739-4.448c-3.361-3.361-4.954-8.101-4.306-12.811
		l7.986-58.02c0.451-3.282,1.964-6.327,4.306-8.669l191.449-191.449c2.848-2.848,6.711-4.448,10.739-4.448
		c4.028,0,7.892,1.601,10.739,4.448l50.034,50.034c5.931,5.931,5.931,15.548,0,21.478L274.537,404.272
		c-2.342,2.342-5.387,3.855-8.669,4.306l-58.018,7.986C207.157,416.658,206.465,416.705,205.777,416.705z M228.112,350.626
		l-4.558,33.114l33.112-4.558l177.1-177.1l-28.556-28.556L228.112,350.626z"/>
	<path style="fill:#507C5C;" d="M205.777,416.705h-98.241c-8.388,0-15.188-6.799-15.188-15.188s6.8-15.188,15.188-15.188h98.241
		c8.388,0,15.188,6.799,15.188,15.188S214.166,416.705,205.777,416.705z"/>
</g>
</svg>