<?xml version="1.0" encoding="iso-8859-1"?>
<!-- Uploaded to: SVG Repo, www.svgrepo.com, Generator: SVG Repo Mixer Tools -->
<svg height="800px" width="800px" version="1.1" id="Layer_1" xmlns="http://www.w3.org/2000/svg" xmlns:xlink="http://www.w3.org/1999/xlink" 
	 viewBox="0 0 512 512" xml:space="preserve">
<path style="fill:#CFF09E;" d="M33.887,36.189h444.226c10.398,0,18.828,8.43,18.828,18.828v198.751
	c0,10.398-8.43,18.828-18.828,18.828h-65.911l-49.117,38.298l-49.117-38.298H33.887c-10.398,0-18.828-8.43-18.828-18.828V55.017
	C15.059,44.619,23.489,36.189,33.887,36.189z"/>
<g>
	<path style="fill:#507C5C;" d="M363.085,325.953c-3.269,0-6.539-1.062-9.258-3.183l-45.035-35.113H33.887
		C15.202,287.655,0,272.453,0,253.768V55.017c0-18.685,15.202-33.887,33.887-33.887h444.226c18.685,0,33.887,15.202,33.887,33.887
		v198.749c0,18.685-15.202,33.888-33.887,33.888h-60.734l-45.035,35.113C369.623,324.891,366.354,325.953,363.085,325.953z
		 M33.887,51.248c-2.078,0-3.769,1.691-3.769,3.769v198.749c0,2.08,1.691,3.771,3.769,3.771h280.081c3.355,0,6.614,1.12,9.258,3.183
		l39.859,31.077l39.859-31.077c2.646-2.063,5.905-3.183,9.258-3.183h65.911c2.078,0,3.769-1.691,3.769-3.771V55.017
		c0-2.078-1.691-3.769-3.769-3.769H33.887z"/>
	<path style="fill:#507C5C;" d="M478.113,490.869H33.887C15.202,490.869,0,475.668,0,456.983v-57.386
		c0-18.685,15.202-33.887,33.887-33.887h60.734l45.035-35.113c5.441-4.244,13.077-4.244,18.518,0l45.035,35.113h106.333
		c8.315,0,15.059,6.743,15.059,15.059c0,8.315-6.743,15.059-15.059,15.059H198.031c-3.355,0-6.614-1.12-9.258-3.183l-39.859-31.077
		l-39.858,31.075c-2.646,2.063-5.905,3.183-9.258,3.183H33.887c-2.078,0-3.769,1.691-3.769,3.769v57.386
		c0,2.078,1.691,3.769,3.769,3.769h444.226c2.078,0,3.769-1.691,3.769-3.769v-57.386c0-2.078-1.691-3.769-3.769-3.769h-61.932
		c-8.315,0-15.059-6.743-15.059-15.059s6.743-15.059,15.059-15.059h61.932c18.685,0,33.887,15.202,33.887,33.887v57.386
		C512,475.668,496.798,490.869,478.113,490.869z"/>
	<path style="fill:#507C5C;" d="M327.832,111.014H71.721c-8.315,0-15.059-6.743-15.059-15.059s6.743-15.059,15.059-15.059h256.111
		c8.315,0,15.059,6.743,15.059,15.059C342.891,104.27,336.149,111.014,327.832,111.014z"/>
	<path style="fill:#507C5C;" d="M199.776,226.129H71.721c-8.315,0-15.059-6.743-15.059-15.059s6.743-15.059,15.059-15.059h128.056
		c8.315,0,15.059,6.743,15.059,15.059S208.093,226.129,199.776,226.129z"/>
	<path style="fill:#507C5C;" d="M412.607,168.57H71.721c-8.315,0-15.059-6.743-15.059-15.059s6.743-15.059,15.059-15.059h340.887
		c8.315,0,15.059,6.743,15.059,15.059S420.924,168.57,412.607,168.57z"/>
</g>
</svg>