<?xml version="1.0" encoding="iso-8859-1"?>
<!-- Uploaded to: SVG Repo, www.svgrepo.com, Generator: SVG Repo Mixer Tools -->
<svg height="800px" width="800px" version="1.1" id="Layer_1" xmlns="http://www.w3.org/2000/svg" xmlns:xlink="http://www.w3.org/1999/xlink" 
	 viewBox="0 0 511.999 511.999" xml:space="preserve">
<g>
	<path style="fill:#507C5C;" d="M414.768,269.298c-7.344,0-13.299-5.955-13.299-13.299c0-80.212-65.256-145.47-145.47-145.47
		c-7.345,0-13.299-5.955-13.299-13.299s5.954-13.299,13.299-13.299c94.878,0,172.067,77.189,172.067,172.067
		C428.067,263.344,422.112,269.298,414.768,269.298z"/>
	<path style="fill:#507C5C;" d="M255.999,428.067c-94.878,0-172.067-77.189-172.067-172.067c0-7.344,5.954-13.299,13.299-13.299
		s13.299,5.955,13.299,13.299c0,80.212,65.258,145.47,145.47,145.47c7.344,0,13.299,5.955,13.299,13.299
		C269.298,422.112,263.344,428.067,255.999,428.067z"/>
	<path style="fill:#507C5C;" d="M255.999,428.112c-67.328,0-132.721-28.747-189.111-83.134
		c-42.148-40.651-64.34-80.917-65.264-82.611c-2.165-3.968-2.165-8.767,0-12.735c0.924-1.694,23.116-41.961,65.264-82.611
		c56.389-54.387,121.783-83.134,189.111-83.134s132.721,28.747,189.111,83.134c42.147,40.651,64.34,80.917,65.264,82.611
		c2.165,3.968,2.165,8.767,0,12.735c-0.924,1.694-23.117,41.961-65.264,82.611C388.721,399.365,323.328,428.112,255.999,428.112z
		 M28.759,256.005c7.745,12.526,27.235,41.64,57.155,70.367c51.928,49.861,109.153,75.143,170.087,75.143
		c129.052,0,209.381-116.702,227.242-145.52c-7.745-12.526-27.235-41.64-57.156-70.367
		c-51.927-49.861-109.153-75.143-170.087-75.143C126.947,110.484,46.618,227.186,28.759,256.005z"/>
</g>
<path style="fill:#CFF09E;" d="M255.999,172.295c-32.613,0-60.849,18.664-74.665,45.881l38.911,37.823l-38.911,37.823
	c13.816,27.219,42.052,45.882,74.665,45.882c46.23,0,83.706-37.476,83.706-83.706S302.229,172.295,255.999,172.295z"/>
<path style="fill:#507C5C;" d="M255.999,353.004c-36.725,0-69.879-20.37-86.524-53.162c-2.636-5.193-1.587-11.497,2.589-15.556
	l29.101-28.287l-29.101-28.288c-4.176-4.06-5.225-10.364-2.589-15.556c16.645-32.79,49.799-53.161,86.524-53.161
	c53.488,0,97.003,43.517,97.003,97.003S309.487,353.004,255.999,353.004z M198.107,296.065c13.053,18.922,34.473,30.34,57.893,30.34
	c38.822,0,70.406-31.583,70.406-70.406s-31.583-70.406-70.406-70.406c-23.418,0-44.84,11.418-57.893,30.339l31.408,30.53
	c2.576,2.504,4.03,5.945,4.03,9.537c0,3.592-1.454,7.032-4.03,9.537L198.107,296.065z"/>
</svg>