<?xml version="1.0" encoding="iso-8859-1"?>
<!-- Uploaded to: SVG Repo, www.svgrepo.com, Generator: SVG Repo Mixer Tools -->
<svg height="800px" width="800px" version="1.1" id="Layer_1" xmlns="http://www.w3.org/2000/svg" xmlns:xlink="http://www.w3.org/1999/xlink" 
	 viewBox="0 0 512.001 512.001" xml:space="preserve">
<g>
	<path style="fill:#507C5C;" d="M172.022,78.047h-48.709c-5.899,0-11.219-3.555-13.477-9.005
		c-2.258-5.451-1.009-11.725,3.161-15.897l48.711-48.711c4.172-4.172,10.449-5.415,15.897-3.162
		c5.451,2.258,9.005,7.577,9.005,13.477V63.46C186.609,71.515,180.079,78.047,172.022,78.047z"/>
	<path style="fill:#507C5C;" d="M388.688,165.929c-8.055,0-14.587-6.532-14.587-14.587V29.337H236.73
		c-8.056,0-14.587-6.532-14.587-14.587s6.531-14.587,14.587-14.587h139.401c14.966,0,27.142,12.176,27.142,27.141V151.34
		C403.275,159.396,396.743,165.929,388.688,165.929z"/>
	<path style="fill:#507C5C;" d="M123.313,165.929c-8.056,0-14.587-6.532-14.587-14.587V63.46c0-3.868,1.537-7.578,4.273-10.315
		l48.709-48.711c5.696-5.695,14.933-5.695,20.63,0c5.696,5.696,5.696,14.933,0,20.63L137.9,69.502v81.839
		C137.9,159.396,131.37,165.929,123.313,165.929z"/>
	<path style="fill:#507C5C;" d="M388.688,511.839H123.313c-8.056,0-14.587-6.532-14.587-14.587V349.922
		c0-8.055,6.531-14.587,14.587-14.587h265.375c8.055,0,14.587,6.532,14.587,14.587c0,8.055-6.532,14.587-14.587,14.587H137.9
		v118.155h250.788c8.055,0,14.587,6.532,14.587,14.587C403.275,505.307,396.743,511.839,388.688,511.839z"/>
	<path style="fill:#507C5C;" d="M465.901,422.257h-77.212c-8.055,0-14.587-6.532-14.587-14.587v-43.16H137.9v43.16
		c0,8.055-6.531,14.587-14.587,14.587H46.101C20.68,422.257,0,401.575,0,376.156V191.04c0-25.419,20.68-46.101,46.101-46.101h419.8
		c25.419,0,46.101,20.682,46.101,46.101v185.116C512,401.575,491.318,422.257,465.901,422.257z M403.275,393.083h62.625
		c9.333,0,16.927-7.593,16.927-16.927V191.04c0-9.333-7.593-16.927-16.927-16.927h-419.8c-9.333,0-16.927,7.593-16.927,16.927
		v185.116c0,9.333,7.593,16.927,16.927,16.927h62.625v-43.16c0-8.055,6.531-14.587,14.587-14.587h265.375
		c8.055,0,14.587,6.532,14.587,14.587V393.083z"/>
</g>
<path style="fill:#CFF09E;" d="M14.587,283.598v92.558c0,17.405,14.109,31.514,31.512,31.514h77.212v-57.747h265.375v57.747h77.212
	c17.404,0,31.512-14.109,31.512-31.514v-92.558L14.587,283.598L14.587,283.598z"/>
<path style="fill:#507C5C;" d="M465.901,422.257h-77.212c-8.055,0-14.587-6.532-14.587-14.587v-43.16H137.9v43.16
	c0,8.055-6.531,14.587-14.587,14.587H46.101C20.68,422.257,0,401.575,0,376.156v-92.558c0-8.055,6.531-14.587,14.587-14.587h482.826
	c8.055,0,14.587,6.532,14.587,14.587v92.558C512,401.575,491.318,422.257,465.901,422.257z M403.275,393.083h62.625
	c9.333,0,16.927-7.593,16.927-16.927v-77.971H29.174v77.971c0,9.333,7.593,16.927,16.927,16.927h62.625v-43.16
	c0-8.055,6.531-14.587,14.587-14.587h265.375c8.055,0,14.587,6.532,14.587,14.587V393.083z"/>
</svg>